<?xml version="1.0" encoding="UTF-8"?>
<svg id="Layer_2" data-name="Layer 2" xmlns="http://www.w3.org/2000/svg" viewBox="0 0 63.02 95.73">
  <defs>
    <style>
      .cls-1 {
        fill: #fff;
      }
    </style>
  </defs>
  <g id="Layer_1-2" data-name="Layer 1">
    <path class="cls-1" d="M54.56,41.61l5.32-14.64-4.88,1.48v-8.28l-12.86,7.98L27.8,4.2c1.77-1.92.59-5.03-1.63-3.99-2.22,1.04-1.18,3.7-1.18,3.7l-14.05,27.8-3.11-6.78-.59,10.03-4.58,6.51.44,2.22-.66,2.89c1.71-1.85,7.52-7.06,11.76,2.22.07.14.12.3.15.45.36,1.53,1.93,9.76-4.83,11.82-.35.11-.72.11-1.07.04-1.84-.37-7.31-2.14-7.04-10l-1.41,4.39v1.8c1.92,21.59,32.24,22.48,32.24,22.48l3.11,6.95-11.53,9.02,23.07-3.84-8.13-12.86,18.04-2.81c15.23-16.56-2.22-34.6-2.22-34.6Z"/>
  </g>
</svg>