<?xml version="1.0" encoding="UTF-8"?>
<svg id="Layer_2" data-name="Layer 2" xmlns="http://www.w3.org/2000/svg" viewBox="0 0 282.47 288.59">
  <defs>
    <style>
      .cls-1 {
        fill: #fff;
      }
    </style>
  </defs>
  <g id="Layer_1-2" data-name="Layer 1">
    <g>
      <path class="cls-1" d="M281.58,162.75l-9.94,1.37c-2.16.3-2.41-5.39-2.48-7.61-.49-17.15-5.32-31.97-12.27-48.32l13.88-.94c.11-4.56-4.24-8.94-8.34-11.04l-11,7.7c-14.38-2.42-27.47-.01-41.76-1.38l-7.05-8.96-3.42-1.97c-1.59-.92.49-8.21-1.06-8.35l-3.63-.34c-1.97-.18-6.75-.13-7.77,1.48-1.02,1.6,1.82,5.62,3.1,6.63-10.67.6-15.18,5.66-19.85.36l-14.69,3.91c-3.12.83-5.46,3.95-6.55,6.94l-16.89,5.66c1.23-6.77,8.27-10.34,6.48-11.58l-3.11-2.15-2.57-1.78c-.58-.4,1.53-1.59,2.23-1.88,13.67-5.67,18.61-16.85,32.54-23.13l-3.77-4.59,9.06-10.25c3.11-3.52,4.6-6.07,7.46-10.44-5.49-.22-8.53-.07-12.86.67l-8.84,1.52c-2.81.48-5.27-.07-7.61-2.46l-11.52,3.96c.67-6.94,3.37-12.85,7.65-18.07l10.91-13.29c5.49-6.69,15.81,3.36,20.78-4.49,1.01-2.6-3.25-8.4-4.9-9.93-8.35,15.01-21.64,2.52-39.37,22.33-12,13.41-45.16,14.06-56.54,31.53,6.28,5.67,19,4.61,27.3,9.95-18.65,2.07-38.45-4.34-44.2,14.61l-4.9,16.12-14.93,8.02c-.89.48-2.21,2.67-2.03,3.53.83,3.98,17.88,6.46,25.4,14.43l-6.13.92c-1.17.18-1.56,1.75-2.61,4.14-2.93.91-9.03,1.13-12.23.39l-5.41-10.66c-1.4-.49-4.27-1.01-4.45-2.13l-.79-5.14c-5.96-4.59-1.56-9.32-6.04-13.51-2.05-1.92-4.52-.99-7.19.16-.22,3.62-4.92,4.25-3.85,8.56h-.35l-5.47,10.77c3.77,4.26,4.3,8.23,1.85,12.89,4.41,14.42,10.18,28.22,19.34,40.02,6.54,8.42,24.95-3.85,37.89,2.28,6.62,3.13,5.22,11.85,6.16,17.31l4.22,24.46c.67,3.87,3,9.15,5.38,12.46,1.82.24,4.85-1.87,7.04-3.62,2.04,12.67,7.03,22.81,14.66,32.51,2.53,3.22,6.22,13.03,6.07,17.28-.2,5.36-3.98,8.26-8.68,11.85l5.02,6.89,9.53.24c2.84-4.63,5.69-11.38,9.17-16.15,3.64-5,8.23-14.79,2.76-20.58-8.82-9.34-8.61-23.79-1.64-29.74,10.6-9.05,24.1-11.91,38.01-10.55l15.81-8.06c12.26.77,15.68,14.31,25.4,6.75l1.45-9.68c-5.96-3.91-13.75-8.32-19.76-12.88-7.36-5.58-14.66-7.19-24.15-2.46-3.19-4.47-4.03-10.66-2.35-15.58,9.03-3.09,17.85-2.81,27.38-1.21-1.04-15.71-34.09-19.72-37.51-26.49-.7-1.38,1.68-4.38,2.53-5.73,2.84-4.5,5.42-5.31,9.85-7.64l10.84-5.7,1.02-8.4,9.6-5.85c4.76,3.09,6.14,7.33,6.69,12.81l1.37,13.64c1,10,4.53,18.59,9.91,26.89l2.3,12.96,13.15.47-5.01-9.86c12.28,4.03,24.02,4.8,36.15,3.49l13.87-1.5c3.11,4.37,8.24,10.1,14.01,7.97,3.62-1.59,3.83-9.47,2.31-12.75ZM81.87,100.72c-3.02,1.46-7.36,1.52-9.62-1.2-5.23-6.28-3.19-15.64,1.89-20.98,2.18-1.13,8.15-1.19,9.82.44,4.15,4.05,4.49,18.56-2.1,21.74ZM242.92,135.75l-2.79,1.08c-1.28.5.89,4.24,0,6.82-3.25-1.31-4.73-2.08-5.72-2.14-1.19-.08-2.23,1.85-4.31,4.61l-3.83-6.17-6.12.74c1.09-2.31,2.36-4.7,2.33-6.16-.03-1.46-3.24-2.67-5.7-3.91l6.92-3.25-.52-6.53,6.45,3.11,4.33-6.32,2.05,5.96c.37,1.07,3.38.66,5.36.1.96-.83,2.88.94,1.66,1.57l-2.09,4.18c-.39.78,1.72,2.24,2.36,2.83l2.22,2.05c.43.4-2.06,1.22-2.62,1.44Z"/>
      <g id="SVGRepo_iconCarrier" data-name="SVGRepo iconCarrier">
        <path class="cls-1" d="M15.89,89.74l-.17-.11c.38-2.73-.68-5.59-3.02-7.38-2.33-1.78-5.33-2.06-7.85-1.01l5.02,3.84-.59,4.5-4.19,1.74L.07,87.48c-.36,2.71.7,5.53,3.03,7.32,2.44,1.87,5.63,2.09,8.23.84l.03.02,20.68,15.82c.82.62,1.81.86,2.76.74s1.84-.62,2.47-1.43c1.25-1.63.94-3.97-.7-5.23l-20.68-15.82ZM34.88,110.48c-.78.1-1.49-.45-1.6-1.22s.44-1.5,1.22-1.6,1.5.44,1.6,1.22c.11.78-.44,1.5-1.23,1.6Z"/>
      </g>
    </g>
  </g>
</svg>