<?xml version="1.0" encoding="UTF-8"?>
<svg id="Layer_2" data-name="Layer 2" xmlns="http://www.w3.org/2000/svg" viewBox="-81.30 0.00 1209.6 1209.6">
  <defs>
    <style>
      .cls-1 {
        fill: #fff;
      }
    </style>
  </defs>
  <g id="Layer_1-2" data-name="Layer 1">
    <path class="cls-1" d="M790.38,462.23c2.74-1.88,4.54-5.04,4.54-8.6,0-5.75-4.68-10.44-10.44-10.44-1.61,0-3.14.38-4.5,1.03L523.95.75l-.43-.75-256.35,444.01c-1.38-.68-2.93-1.07-4.57-1.07-5.75,0-10.44,4.68-10.44,10.44,0,3.59,1.83,6.77,4.6,8.65L.43,906l-.43.75h513.1c.24,5.55,4.81,9.99,10.41,9.99s10.18-4.44,10.41-9.99h513.1l-256.64-444.52ZM793.92,453.63c0,5.2-4.23,9.44-9.44,9.44s-9.44-4.23-9.44-9.44,4.23-9.44,9.44-9.44,9.44,4.23,9.44,9.44ZM523.51,2l248.32,430.1c-10.24-14.73-21.86-28.66-34.81-41.61-57.03-57.03-132.86-88.44-213.51-88.44s-156.48,31.41-213.51,88.44c-12.95,12.95-24.56,26.88-34.81,41.61L523.51,2ZM253.16,453.38c0-5.2,4.23-9.44,9.44-9.44s9.44,4.23,9.44,9.44-4.23,9.44-9.44,9.44-9.44-4.23-9.44-9.44ZM1.73,905.75l248.23-429.95c-18.59,39.61-28.4,83.15-28.4,128.2,0,80.65,31.41,156.48,88.44,213.51,54.55,54.55,126.31,85.64,203.03,88.24H1.73ZM222.56,604c0-51.05,12.8-99.16,35.33-141.32,1.42.72,3.01,1.13,4.71,1.13,5.75,0,10.44-4.68,10.44-10.44,0-3.64-1.88-6.85-4.71-8.71,53.25-84.98,147.72-141.61,255.19-141.61s202.09,56.73,255.32,141.82c-2.87,1.86-4.78,5.09-4.78,8.76,0,5.75,4.68,10.44,10.44,10.44,1.72,0,3.34-.43,4.77-1.16,22.45,42.11,35.2,90.14,35.2,141.1,0,162.49-129.45,295.29-290.64,300.75-.76-5.02-5.08-8.88-10.31-8.88s-9.57,3.88-10.31,8.91c-.04,0-.09,0-.13,0-161.13-5.52-290.51-138.32-290.51-300.77ZM523.51,915.74c-5.2,0-9.44-4.23-9.44-9.44s4.23-9.44,9.44-9.44,9.44,4.23,9.44,9.44-4.23,9.44-9.44,9.44ZM737.02,817.51c57.03-57.03,88.44-132.86,88.44-213.51,0-45.05-9.81-88.6-28.4-128.21l248.24,429.96h-511.3c76.72-2.6,148.47-33.69,203.03-88.24Z"/>
  </g>
</svg>