<?xml version="1.0" encoding="UTF-8"?>
<svg id="Layer_2" data-name="Layer 2" xmlns="http://www.w3.org/2000/svg" viewBox="0 0 511.84 432.55">
  <defs>
    <style>
      .cls-1 {
        fill: #f0dfbf;
      }
    </style>
  </defs>
  <g id="Layer_1-2" data-name="Layer 1">
    <path class="cls-1" d="M175.34,408.77l6.41-33.01c-29.36-8.33-56.19-11.98-75.3-32.29-23.99-25.49-18.85-65.68-9.94-94.14-7.27-4.86-10.81-10.13-15.21-17.51l-19.87-33.33,13.5-6.14-22.03-40.98,27.37-5.05-1.47-52.56c18.33,10.74,33.34,20.64,49.5,32.72l30.05,22.47,8.1-17.31c11.16,10.82,22.06,13.6,37.28,12.46,40.18-3.01,79.16.14,119.09,4.88l21.75-11.8,4.49,13.78c2.85,8.75,48.31-31.99,84.25-46.46l-4.93,52.31,27.24,8.01-23.79,37.49,10.93,9.61-19.93,30.69c-4.64,7.14-8.8,11.64-16.92,15.42,6.68,31.64,9.34,73.69-18.8,97-19.15,15.87-44.8,18.38-70.95,24.32l6.1,10.94c1.97,3.54,11.58,19.74,15.58,19.03l26.86,15.1-75.94,5.93-5.63-47.56-61.53-1.05-12.62,50.81-77.56-.58,43.96-23.19ZM293.24,188.64c-27.58,2.31-41.93,27.3-38.5,49.99,3.53,23.32,24.78,6.34,48.75,4.3,23.03-1.96,39.49,8.42,37.02-15.52-2.26-21.84-20.93-40.97-47.27-38.76ZM198.2,185.82c-27.27-2.39-47.21,16.55-48.21,41.41-.85,21.13,16.8,11.02,41.28,13.02,21.83,1.78,42.03,17.87,45.16-6.9,2.56-20.2-12.05-45.23-38.23-47.52Z"/>
    <path class="cls-1" d="M416.71,55.09l-37.23,54.45c-2.23-22.85-1.94-35.06-1.12-55.3l38.35.85Z"/>
    <path class="cls-1" d="M130.72,79.73l-48.71-25.03,25.02-25.95c11.4,21.62,13.24,23.17,23.69,50.98Z"/>
    <polygon class="cls-1" points="492.86 112.46 455.6 108.97 478.32 73.11 492.86 112.46"/>
    <polygon class="cls-1" points="40.07 133.26 11.96 151.98 0 123.56 40.07 133.26"/>
    <g id="SVGRepo_iconCarrier" data-name="SVGRepo iconCarrier">
      <path class="cls-1" d="M487.11,226.59l.32-.37c6.47,1.8,13.7.16,18.79-4.92,5.04-5.05,6.69-12.2,4.95-18.63l-10.89,10.89-10.67-2.86-2.85-10.67,10.88-10.9c-6.43-1.73-13.57-.08-18.63,4.97-5.3,5.29-6.85,12.92-4.68,19.59l-.06.06-44.81,44.81c-1.77,1.77-2.67,4.09-2.67,6.41,0,2.32.9,4.64,2.67,6.42,3.53,3.55,9.28,3.55,12.84,0l44.81-44.81ZM430.99,265.76c0-1.91,1.55-3.46,3.47-3.46s3.47,1.55,3.47,3.46-1.55,3.47-3.47,3.47c-1.91,0-3.47-1.55-3.47-3.47Z"/>
    </g>
    <path class="cls-1" d="M323.08,74.55c3.15-22.86-8.18-44.36-26.97-55.29l-14.83,21.65,4.4-31.91c.35-2.52-1.41-4.84-3.93-5.19L254.4.04c-2.52-.35-4.84,1.41-5.19,3.93l-4.4,31.91-8.42-24.86c-21.04,5.43-37.78,23.05-40.94,45.92l-2.52,18.23,127.63,17.61,2.52-18.23ZM323.87,102.53l-136.74-18.87c-2.52-.35-4.84,1.41-5.19,3.93l-1.26,9.12c-.35,2.52,1.41,4.84,3.93,5.19l136.74,18.87c2.52.35,4.84-1.41,5.19-3.93l1.26-9.12c.35-2.52-1.41-4.84-3.93-5.19Z"/>
  </g>
</svg>