<?xml version="1.0" encoding="UTF-8"?>
<svg id="Layer_2" data-name="Layer 2" xmlns="http://www.w3.org/2000/svg" viewBox="0 0 367.41 189.83">
  <defs>
    <style>
      .cls-1 {
        fill: #f0dfbf;
      }
    </style>
  </defs>
  <g id="Layer_1-2" data-name="Layer 1">
    <g>
      <g>
        <g>
          <path class="cls-1" d="M142.78,54.8v79.44h-20.9v-31.2l-21.19,29.88h-.15l-21.24-29.88v31.2h-20.9V54.8h8.4l33.79,46.29,33.79-46.29h8.4Z"/>
          <path class="cls-1" d="M309,93.41c0,24.41-16.36,39.26-43.12,39.26h-25.68V54l25.68-.05c26.76-.1,43.12,14.84,43.12,39.45ZM288.06,93.36c0-12.35-8.59-19.87-22.71-19.87h-4.79v39.5h4.98c13.96,0,22.51-7.42,22.51-19.63Z"/>
        </g>
        <g>
          <path class="cls-1" d="M174.56,128.1l1.42-7.27c-6.47-1.84-12.38-2.65-16.59-7.13-5.28-5.62-4.14-14.48-2.17-20.75-1.6-1.07-2.38-2.23-3.35-3.86l-4.37-7.35,2.98-1.35-4.84-9.04,6.03-1.11-.31-11.58c4.04,2.37,7.34,4.56,10.9,7.22l6.62,4.96,1.79-3.81c2.46,2.39,4.86,3,8.21,2.76,8.86-.65,17.44.05,26.24,1.11l4.8-2.59.99,3.04c.63,1.93,10.65-7.04,18.58-10.22l-1.1,11.53,6,1.77-5.25,8.26,2.41,2.12-4.4,6.76c-1.02,1.57-1.94,2.56-3.73,3.39,1.46,6.97,2.04,16.24-4.17,21.37-4.22,3.49-9.88,4.04-15.64,5.34l1.34,2.41c.43.78,2.55,4.35,3.43,4.2l5.92,3.33-16.74,1.29-1.23-10.48-13.56-.25-2.8,11.19-17.09-.15,9.69-5.1ZM200.61,79.62c-6.08.5-9.25,6-8.5,11.01s5.46,1.4,10.74.96c5.07-.43,8.7,1.87,8.16-3.41-.49-4.81-4.6-9.03-10.41-8.55ZM179.66,78.97c-6.01-.53-10.41,3.63-10.64,9.11-.19,4.66,3.7,2.43,9.09,2.88,4.81.4,9.26,3.95,9.95-1.51.57-4.45-2.64-9.97-8.41-10.48Z"/>
          <path class="cls-1" d="M204.67,59.9c.58-4.2-1.49-8.15-4.94-10.16l-2.73,3.97.82-5.86c.06-.46-.26-.89-.72-.95l-5.02-.97c-.46-.06-.89.53-.95,1l-.82,5.86-1.54-4.57c-3.87.99-6.94,4.22-7.53,8.42l-.47,3.35,23.43,3.26.47-3.35ZM204.8,65.04l-25.11-3.5c-.46-.06-.89.26-.95.72l-.23,1.67c-.06.46.26.89.72.95l25.11,3.5c.46.06.89-.26.95-.72l.23-1.67c.06-.46-.26-.89-.72-.95Z"/>
        </g>
      </g>
      <g>
        <path class="cls-1" d="M50.62.82v47.67h-12.54v-18.72l-12.71,17.93h-.09l-12.74-17.93v18.72H0V.82h5.04l20.27,27.77L45.59.82h5.04Z"/>
        <path class="cls-1" d="M56.78,24.93c0-14.18,11.25-24.93,25.93-24.93s25.93,10.75,25.93,24.93-11.25,24.76-25.96,24.76-25.9-10.69-25.9-24.76ZM95.95,24.84c0-7.29-5.74-12.92-13.24-12.92s-13.24,5.62-13.24,12.92,5.74,12.86,13.24,12.86,13.24-5.6,13.24-12.86Z"/>
        <path class="cls-1" d="M112.73,24.93c0-14.18,11.25-24.93,25.93-24.93s25.93,10.75,25.93,24.93-11.25,24.76-25.96,24.76-25.9-10.69-25.9-24.76ZM151.9,24.84c0-7.29-5.74-12.92-13.24-12.92s-13.24,5.62-13.24,12.92,5.74,12.86,13.24,12.86,13.24-5.6,13.24-12.86Z"/>
        <path class="cls-1" d="M211.55,1.2v47.75h-3.98l-24.29-23.53v23.09h-12.54V.79h4.04l24.2,23.44V1.2h12.57Z"/>
        <path class="cls-1" d="M250.02,42.98h-17.64l-2.4,5.51h-13.71L238.21.67h5.95l21.97,47.81h-13.74l-2.37-5.51ZM246.04,33.81l-4.83-11.19-4.86,11.19h9.7Z"/>
        <path class="cls-1" d="M309.93,1.26v47.23h-12.51v-17.78h-14.03v17.78h-12.54V1.26h12.54v17.72h14.03V1.26h12.51Z"/>
        <path class="cls-1" d="M316.08.06h12.6l-2.87,16.85h-6.88L316.08.06Z"/>
        <path class="cls-1" d="M332.37,40.49l7.59-7.44c1.96,2.9,5.62,4.66,9.58,4.66,2.67,0,5.27-.97,5.27-2.9,0-2.43-4.83-4.57-9.46-6.62-5.98-2.58-11.1-6.5-11.1-13.62,0-8.17,7.76-14,16.73-14,7.21,0,12.83,3.4,14.68,8.06l-7.24,6.97c-1.41-2.49-5.04-3.57-7.29-3.57-2.58,0-4.42,1.32-4.42,2.93,0,2.17,3.34,2.87,8.44,5.01,7.38,3.11,12.28,7.62,12.28,14.59,0,8.99-8.38,14.59-17.84,14.59-7.76,0-14.82-3.43-17.2-8.64Z"/>
      </g>
      <g>
        <path class="cls-1" d="M118.54,142.16v47.67h-12.54v-18.72l-12.71,17.93h-.09l-12.74-17.93v18.72h-12.54v-47.67h5.04l20.27,27.77,20.27-27.77h5.04Z"/>
        <path class="cls-1" d="M157,184.32h-17.64l-2.4,5.51h-13.71l21.94-47.81h5.95l21.97,47.81h-13.74l-2.37-5.51ZM153.02,175.15l-4.83-11.19-4.86,11.19h9.7Z"/>
        <path class="cls-1" d="M202.29,189.83l-11.95-17.96v17.96h-12.51v-47.23h12.51v17.61l10.96-17.61h14.41l-14.47,23.03,16.26,24.2h-15.21Z"/>
        <path class="cls-1" d="M234.4,154.26v6.59h15v10.46h-15v6.77h18.22v11.75h-30.62v-47.23h30.62v11.66h-18.22Z"/>
        <path class="cls-1" d="M284.82,189.83l-12.63-20.51v20.51h-12.54l-.06-47.23h17.93c10.2,0,17.49,6.88,17.49,15.35,0,5.89-3.54,10.81-8.17,12.92l12.66,18.96h-14.68ZM272.14,163.34l5.13.03c2.67.03,5.1-1.85,5.1-4.75s-2.46-4.75-5.1-4.75h-5.13v9.46Z"/>
      </g>
    </g>
  </g>
</svg>