<?xml version="1.0" encoding="UTF-8"?>
<svg id="Layer_2" data-name="Layer 2" xmlns="http://www.w3.org/2000/svg" viewBox="0 0 374.6 213.06">
  <defs>
    <style>
      .cls-1, .cls-2, .cls-3 {
        fill: #f0dfbf;
      }

      .cls-2 {
        font-size: 100px;
      }

      .cls-2, .cls-3 {
        font-family: LEMONMILK-Bold, 'LEMON MILK';
        font-weight: 700;
      }

      .cls-3 {
        font-size: 60px;
      }
    </style>
  </defs>
  <g id="Layer_1-2" data-name="Layer 1">
    <text class="cls-2" transform="translate(36.92 139.37)"><tspan x="0" y="0" xml:space="preserve">M    D</tspan></text>
    <g>
      <path class="cls-1" d="M175.62,133.62l1.22-6.26c-5.57-1.59-10.65-2.28-14.27-6.14-4.54-4.84-3.56-12.46-1.86-17.86-1.38-.92-2.05-1.92-2.88-3.32l-3.76-6.33,2.56-1.16-4.17-7.78,5.19-.95-.27-9.97c3.47,2.04,6.32,3.92,9.38,6.22l5.69,4.27,1.54-3.28c2.11,2.05,4.18,2.58,7.07,2.37,7.62-.56,15.01.04,22.59.95l4.13-2.23.85,2.61c.54,1.66,9.17-6.06,15.99-8.79l-.95,9.92,5.16,1.53-4.52,7.11,2.07,1.83-3.79,5.82c-.88,1.35-1.67,2.21-3.21,2.92,1.26,6,1.76,13.98-3.59,18.39-3.64,3-8.5,3.47-13.46,4.6l1.15,2.08c.37.67,2.19,3.75,2.95,3.61l5.09,2.87-14.4,1.11-1.06-9.02-11.67-.21-2.41,9.63-14.71-.13,8.34-4.39ZM198.03,91.9c-5.23.43-7.96,5.17-7.31,9.47.66,4.42,4.7,1.21,9.25.83s7.49,1.61,7.02-2.94c-.42-4.14-3.96-7.77-8.96-7.36ZM180,91.34c-5.17-.46-8.96,3.13-9.15,7.84-.17,4.01,3.18,2.09,7.83,2.48,4.14.34,7.97,3.4,8.57-1.3.49-3.83-2.27-8.58-7.24-9.02Z"/>
      <path class="cls-1" d="M221.48,66.6l-7.07,10.32c-.42-4.33-.36-6.65-.2-10.49l7.27.17Z"/>
      <path class="cls-1" d="M167.23,71.21l-9.23-4.76,4.75-4.92c2.16,4.1,2.51,4.4,4.48,9.67Z"/>
      <polygon class="cls-1" points="235.91 77.5 228.84 76.83 233.16 70.03 235.91 77.5"/>
      <polygon class="cls-1" points="150.03 81.34 144.69 84.88 142.43 79.49 150.03 81.34"/>
      <g id="SVGRepo_iconCarrier" data-name="SVGRepo iconCarrier">
        <path class="cls-1" d="M242.21,94.77l.1-.11c2.02.57,4.28.06,5.87-1.53,1.58-1.58,2.1-3.81,1.55-5.82l-3.41,3.4-3.33-.9-.89-3.34,3.41-3.4c-2.01-.54-4.24-.03-5.83,1.55-1.66,1.65-2.15,4.04-1.47,6.12l-.02.02-14.02,13.99c-.55.55-.83,1.28-.84,2s.28,1.45.83,2.01c1.1,1.11,2.9,1.11,4.01,0l14.02-13.99ZM224.65,107c0-.6.49-1.08,1.09-1.08s1.08.49,1.08,1.08-.48,1.08-1.09,1.08c-.6,0-1.08-.48-1.08-1.09Z"/>
      </g>
      <path class="cls-1" d="M203.72,70.27c.6-4.34-1.54-8.42-5.1-10.49l-2.82,4.1.84-6.05c.07-.48-.27-.92-.74-.98l-5.19-.72c-.48-.07-.92.27-.98.74l-.84,6.05-1.59-4.72c-3.99,1.02-7.17,4.36-7.77,8.7l-.48,3.46,24.2,3.37.48-3.46ZM203.86,75.58l-25.93-3.61c-.48-.07-.92.27-.98.74l-.24,1.73c-.07.48.27.92.74.98l25.93,3.61c.48.07.92-.27.98-.74l.24-1.73c.07-.48-.27-.92-.74-.98Z"/>
    </g>
    <text class="cls-3" transform="translate(0 53.61)"><tspan x="0" y="0">MOONAH&apos;S</tspan></text>
    <text class="cls-3" transform="translate(68.08 194.95)"><tspan x="0" y="0">Maker</tspan></text>
  </g>
</svg>